PathFileType	4	(X/Y/Z)	/Users/itak/Documents/Research/Walk-IL/dataset/trc/00459_00167.trc
DataRate	CameraRate	NumFrames	NumMarkers	Units	OrigDataRate	OrigDataStartFrame	OrigNumFrames
100.000000	100.000000	4	53	mm	100.000000	296	592
Frame#	Time	RPSI			LPSI			L3			STRN			T10			C7			CLAV			RBAK			LBAK			LSHO			LUPA			LAEL			LAOL			LWTS			LWPS			LFRA			LIFD			LHPS			LHTS			RSHO			RUPA			RAEL			RAOL			RWTS			RWPS			RFRA			RIFD			RHTS			RHPS			RBHD			LFHD			RFHD			LBHD			LHIP			RHIP			RASI			LASI			LKNE			LTHI			LANK			LTIP			LTOE			LMT1			LMT5			LHEE			RKNE			RTHI			RANK			RTIP			RTOE			RMT1			RMT5			RHEE			
		X1	Y1	Z1	X2	Y2	Z2	X3	Y3	Z3	X4	Y4	Z4	X5	Y5	Z5	X6	Y6	Z6	X7	Y7	Z7	X8	Y8	Z8	X9	Y9	Z9	X10	Y10	Z10	X11	Y11	Z11	X12	Y12	Z12	X13	Y13	Z13	X14	Y14	Z14	X15	Y15	Z15	X16	Y16	Z16	X17	Y17	Z17	X18	Y18	Z18	X19	Y19	Z19	X20	Y20	Z20	X21	Y21	Z21	X22	Y22	Z22	X23	Y23	Z23	X24	Y24	Z24	X25	Y25	Z25	X26	Y26	Z26	X27	Y27	Z27	X28	Y28	Z28	X29	Y29	Z29	X30	Y30	Z30	X31	Y31	Z31	X32	Y32	Z32	X33	Y33	Z33	X34	Y34	Z34	X35	Y35	Z35	X36	Y36	Z36	X37	Y37	Z37	X38	Y38	Z38	X39	Y39	Z39	X40	Y40	Z40	X41	Y41	Z41	X42	Y42	Z42	X43	Y43	Z43	X44	Y44	Z44	X45	Y45	Z45	X46	Y46	Z46	X47	Y47	Z47	X48	Y48	Z48	X49	Y49	Z49	X50	Y50	Z50	X51	Y51	Z51	X52	Y52	Z52	X53	Y53	Z53	

297	2.96	-178.7520446777344	922.588134765625	-720.839111328125	-61.5849609375	936.6027221679688	-798.3577880859375	-112.8082580566406	1022.646179199219	-743.1136474609375	26.86707878112793	1209.934692382812	-498.6133422851562	-107.8161087036133	1145.786499023438	-754.4325561523438	-88.55403137207031	1410.89013671875	-681.511962890625	8.402976036071777	1324.714477539062	-525.361083984375	-195.2381134033203	1289.516723632812	-703.2620239257812	-12.82715702056885	1368.90087890625	-758.6714477539062	101.4286270141602	1392.825317382812	-701.8621215820312	196.9562683105469	1285.859497070312	-751.5728149414062	290.4245910644531	1093.710205078125	-731.5260620117188	204.4179077148438	1047.576171875	-765.9127197265625	344.8033142089844	923.9739379882812	-602.7349243164062	375.6079711914062	902.430908203125	-666.81982421875	332.0091247558594	1018.676086425781	-701.9277954101562	405.4717102050781	771.5653076171875	-562.0735473632812	405.1925048828125	834.0046997070312	-642.0468139648438	389.7427978515625	853.5659790039062	-574.8911743164062	-203.0426330566406	1376.944702148438	-556.6533203125	-279.6547546386719	1315.748168945312	-551.5951538085938	-341.4709167480469	1033.44580078125	-556.272705078125	-320.4008178710938	1022.630615234375	-619.8822631835938	-270.7407836914062	817.968994140625	-499.8934020996094	-350.7980041503906	811.4815673828125	-542.608154296875	-352.1830139160156	974.9483642578125	-555.25537109375	-288.3911743164062	662.3078002929688	-516.6793823242188	-284.099609375	718.4531860351562	-495.8493957519531	-346.7008972167969	723.6964111328125	-539.3936767578125	-138.5759124755859	1600.02734375	-562.7659301757812	59.95794677734375	1633.046020507812	-515.90869140625	-55.54430389404297	1624.502807617188	-455.3837890625	9.665160179138184	1615.075927734375	-659.2890625	104.1441421508789	829.570556640625	-771.0450439453125	-220.5403900146484	816.2062377929688	-542.6141357421875	-108.7823028564453	865.794921875	-497.5811462402344	104.6398849487305	857.509033203125	-640.573486328125	9.140233039855957	424.1676635742188	-822.0250854492188	67.65102386474609	567.4758911132812	-786.2109985351562	-134.3980255126953	44.29445266723633	-955.5478515625	-21.01472282409668	283.0436096191406	-872.7781372070312	6.343433856964111	40.52562713623047	-756.9999389648438	-69.29277801513672	47.73675537109375	-780.5674438476562	-1.911098480224609	38.23539352416992	-876.7351684570312	-209.3737640380859	53.66818618774414	-928.51953125	-93.32818603515625	442.349609375	-461.6495971679688	-181.0245208740234	692.9320678710938	-477.3506164550781	3.043960332870483	30.49665451049805	-394.1302490234375	-70.35146331787109	311.5344848632812	-425.4134826660156	98.73748779296875	85.99430084228516	-207.7046051025391	117.3846282958984	79.79450988769531	-277.7210693359375	16.54746246337891	53.69302749633789	-263.9352722167969	34.28487396240234	21.23138999938965	-468.8436584472656	
298	2.97	-174.6162872314453	921.7540893554688	-714.55859375	-57.1682243347168	935.362060546875	-791.8939208984375	-108.5033416748047	1021.683044433594	-736.837646484375	29.32125663757324	1208.9921875	-491.1863098144531	-103.650634765625	1144.818359375	-747.9415283203125	-85.32652282714844	1409.970092773438	-674.9275512695312	10.73458003997803	1323.789916992188	-517.9915161132812	-191.6047210693359	1288.218139648438	-697.3839721679688	-9.130928039550781	1368.285888671875	-751.7841186523438	104.9786605834961	1391.738403320312	-693.9976196289062	200.0216674804688	1283.703369140625	-742.7794189453125	290.8726196289062	1090.331909179688	-721.8377075195312	204.5658264160156	1045.334838867188	-757.0595703125	341.1857604980469	919.5634155273438	-592.5925903320312	372.9219360351562	897.9213256835938	-656.1781005859375	331.1481018066406	1014.72119140625	-691.8753662109375	398.8793334960938	766.0596923828125	-551.61669921875	400.9262390136719	828.8718872070312	-631.1852416992188	384.4320373535156	848.2697143554688	-564.2847290039062	-200.669189453125	1375.613647460938	-550.7924194335938	-277.22314453125	1314.193725585938	-546.3251953125	-338.3674621582031	1031.817016601562	-551.7257080078125	-316.6852416992188	1021.188232421875	-615.1436767578125	-268.4990844726562	816.0929565429688	-495.5179443359375	-348.086181640625	809.8765869140625	-538.712890625	-349.0994873046875	973.350830078125	-551.0117797851562	-286.076171875	660.5694580078125	-512.8663940429688	-281.8383483886719	716.603515625	-491.798095703125	-343.9948120117188	722.0953369140625	-535.9371948242188	-136.6196136474609	1599.119995117188	-556.4187622070312	61.66644287109375	1632.495361328125	-508.8740539550781	-54.07888031005859	1623.822143554688	-448.7980651855469	11.92436695098877	1614.313842773438	-652.407958984375	108.4016647338867	828.1683959960938	-764.2283325195312	-216.4384002685547	815.947509765625	-535.6128540039062	-104.9522476196289	865.4120483398438	-490.9000854492188	108.6460571289062	856.3571166992188	-633.6598510742188	12.92055797576904	423.2942504882812	-816.8359985351562	71.76383209228516	566.3801879882812	-780.028076171875	-133.7400054931641	45.95351028442383	-955.5879516601562	-18.44954681396484	282.8597412109375	-869.6115112304688	6.349280834197998	40.43248748779297	-756.8892211914062	-69.05201721191406	47.88577651977539	-780.6265869140625	-1.759797811508179	38.1429443359375	-876.7106323242188	-208.7013854980469	55.85126113891602	-928.7744140625	-89.63076019287109	441.6408386230469	-455.9112854003906	-176.89404296875	692.6881103515625	-470.6410217285156	4.526003360748291	31.07679176330566	-393.2254638671875	-66.49113464355469	310.5888977050781	-420.3886413574219	102.1148681640625	79.13227081298828	-205.4731903076172	120.3763046264648	74.58482360839844	-275.7544250488281	18.77098274230957	51.32974624633789	-262.0237426757812	35.50514602661133	22.02010154724121	-468.0257263183594	
299	2.98	-170.5575103759766	921.2420043945312	-708.1685180664062	-52.78083038330078	934.2493896484375	-785.3002319335938	-104.2041549682617	1021.008850097656	-730.455322265625	31.7209529876709	1208.3330078125	-483.6416931152344	-99.49998474121094	1144.145629882812	-741.3776245117188	-82.10350799560547	1409.33984375	-668.2413940429688	13.01980686187744	1323.15283203125	-510.5057983398438	-187.9983062744141	1287.217529296875	-691.412109375	-5.428816795349121	1367.942626953125	-744.7706298828125	108.5346984863281	1390.918090820312	-686.0014038085938	203.0338745117188	1281.758178710938	-733.8825073242188	291.1297912597656	1087.111572265625	-712.15869140625	204.4981842041016	1043.337036132812	-748.2227783203125	337.2056579589844	915.1912231445312	-582.6769409179688	369.9171142578125	893.53515625	-645.7482299804688	330.0324096679688	1010.897155761719	-681.9129638671875	391.7812805175781	760.523681640625	-541.6673583984375	396.2870788574219	823.8297729492188	-620.6531982421875	378.6611938476562	842.958251953125	-554.023193359375	-198.3373870849609	1374.553833007812	-544.8455810546875	-274.8048706054688	1312.887329101562	-540.9595947265625	-335.2569580078125	1030.439453125	-547.0037231445312	-312.9673461914062	1019.980529785156	-610.2285766601562	-266.3251037597656	814.4727172851562	-490.9730529785156	-345.2906494140625	808.541015625	-534.602783203125	-345.9931335449219	971.998779296875	-546.5762939453125	-283.6580810546875	659.1116943359375	-508.7586975097656	-279.4873657226562	715.0449829101562	-487.4704895019531	-341.2065124511719	720.74560546875	-532.19970703125	-134.6833648681641	1598.508056640625	-549.8872680664062	63.34626770019531	1632.1640625	-501.5754699707031	-52.65157318115234	1623.329956054688	-441.9812927246094	14.19517040252686	1613.894409179688	-645.2874145507812	112.5959091186523	826.9027709960938	-757.151611328125	-212.3268585205078	816.2703857421875	-528.1991577148438	-101.2191619873047	865.5379028320312	-484.0329895019531	112.5634841918945	855.4298706054688	-626.5198974609375	16.86775016784668	422.6011657714844	-811.39306640625	75.96870422363281	565.4688110351562	-773.5089721679688	-132.9357604980469	48.02538299560547	-955.6471557617188	-15.72164154052734	282.9478759765625	-866.3231811523438	6.392182350158691	40.33677673339844	-756.7796020507812	-68.73036193847656	48.09659957885742	-780.680908203125	-1.561666488647461	38.06400680541992	-876.6483764648438	-207.8617095947266	58.5353889465332	-929.042724609375	-85.95507049560547	441.3843688964844	-449.9339294433594	-172.7242431640625	692.9471435546875	-463.6422119140625	5.841475963592529	31.8660831451416	-392.6672058105469	-62.66500473022461	310.01171875	-415.2376098632812	105.587760925293	72.37721252441406	-203.8010406494141	123.3633041381836	69.51348876953125	-274.3535461425781	20.95100402832031	49.36427307128906	-260.5227966308594	36.37772750854492	22.92427062988281	-467.5569458007812	
300	2.99	-166.5658416748047	921.1216430664062	-701.7020874023438	-48.40937805175781	933.3379516601562	-778.5813598632812	-99.90531921386719	1020.671203613281	-723.984130859375	34.05506896972656	1207.9990234375	-475.9961242675781	-95.36164093017578	1143.813110351562	-734.7706298828125	-78.87825012207031	1409.0380859375	-661.4700927734375	15.25497341156006	1322.841918945312	-502.9248962402344	-184.4193572998047	1286.561157226562	-685.3682861328125	-1.708426713943481	1367.907836914062	-737.640869140625	112.1006317138672	1390.410034179688	-677.8858032226562	205.9997406005859	1280.084106445312	-724.9056396484375	291.2086791992188	1084.111083984375	-702.507568359375	204.2349700927734	1041.64453125	-739.4146118164062	332.8858642578125	910.9308471679688	-573.0169677734375	366.6171569824219	889.3421020507812	-635.5556030273438	328.6798706054688	1007.269653320312	-672.0602416992188	384.2233581542969	755.0482177734375	-532.2521362304688	391.3176879882812	818.9592895507812	-610.4754638671875	372.4673156738281	837.71923828125	-544.13720703125	-196.0420532226562	1373.808471679688	-538.8330078125	-272.3981323242188	1311.875	-535.5164184570312	-332.1329345703125	1029.359985351562	-542.10302734375	-309.2454528808594	1019.050109863281	-605.1375732421875	-264.1626586914062	813.1619262695312	-486.2312622070312	-342.3994140625	807.5191040039062	-530.27783203125	-342.8571166992188	970.9375	-541.9391479492188	-281.1346435546875	657.9737548828125	-504.3492736816406	-277.04150390625	713.8198852539062	-482.8619995117188	-338.3347473144531	719.691650390625	-528.1704711914062	-132.7641296386719	1598.223022460938	-543.1760864257812	64.99860382080078	1632.06884765625	-494.00390625	-51.26123046875	1623.04052734375	-434.9308471679688	16.48504829406738	1613.85546875	-637.9229736328125	116.7253723144531	825.8289794921875	-749.8016967773438	-208.2766418457031	817.1649169921875	-520.5201416015625	-97.62514495849609	866.1915893554688	-477.0155334472656	116.3689804077148	854.7716064453125	-619.14599609375	21.01263427734375	422.120849609375	-805.6879272460938	80.28082275390625	564.7781982421875	-766.6416625976562	-131.9685516357422	50.54335784912109	-955.710693359375	-12.80333232879639	283.3483581542969	-862.90966796875	6.477646827697754	40.24042510986328	-756.66845703125	-68.31441497802734	48.37504959106445	-780.7189331054688	-1.309873461723328	38.00397109985352	-876.5400390625	-206.8247680664062	61.77367782592773	-929.2921142578125	-82.38051605224609	441.5873107910156	-443.7944030761719	-168.5682373046875	693.71142578125	-456.4359436035156	6.99405574798584	32.76988220214844	-392.3205871582031	-58.99965667724609	309.8021240234375	-410.047607421875	109.0108184814453	66.03722381591797	-202.5953979492188	126.2296981811523	64.82859039306641	-273.4102783203125	23.01936149597168	47.83805847167969	-259.3378295898438	36.94900131225586	23.86185836791992	-467.2942199707031	
